<?xml version="1.0" encoding="utf-8"?>
<!-- Generator: Adobe Illustrator 25.0.0, SVG Export Plug-In . SVG Version: 6.00 Build 0)  -->
<svg version="1.1" xmlns="http://www.w3.org/2000/svg" xmlns:xlink="http://www.w3.org/1999/xlink" x="0px" y="0px"
	 viewBox="0 0 100 99.4" style="enable-background:new 0 0 100 99.4;" xml:space="preserve">
<style type="text/css">
	.st0{fill:#056CF2;}
</style>
<g id="Camada_2">
</g>
<g id="Camada_1">
	<path class="st0" d="M50,2.5C23.8,2.5,2.5,23.8,2.5,50S23.8,97.5,50,97.5S97.5,76.2,97.5,50S76.2,2.5,50,2.5z M69.5,64.4
		c1.4,1.4,1.4,3.7,0,5.2c-0.7,0.7-1.7,1.1-2.6,1.1s-1.9-0.4-2.6-1.1L50,55.2L35.6,69.5c-0.7,0.7-1.7,1.1-2.6,1.1s-1.9-0.4-2.6-1.1
		c-1.4-1.4-1.4-3.7,0-5.2L44.8,50L30.5,35.6c-1.4-1.4-1.4-3.7,0-5.2c1.4-1.4,3.7-1.4,5.2,0L50,44.8l14.4-14.4c1.4-1.4,3.7-1.4,5.2,0
		c1.4,1.4,1.4,3.7,0,5.2L55.2,50L69.5,64.4z"/>
</g>
</svg>
