<?xml version="1.0" encoding="utf-8"?>
<!-- Generator: Adobe Illustrator 25.0.0, SVG Export Plug-In . SVG Version: 6.00 Build 0)  -->
<svg version="1.1" xmlns="http://www.w3.org/2000/svg" xmlns:xlink="http://www.w3.org/1999/xlink" x="0px" y="0px"
	 viewBox="0 0 100 99.4" style="enable-background:new 0 0 100 99.4;" xml:space="preserve">
<style type="text/css">
	.st0{fill:#056CF2;}
</style>
<g id="Camada_2">
</g>
<g id="Camada_1">
	<path class="st0" d="M50,5C25.3,5,5.2,25.1,5,49.7c-0.1,12,4.5,23.4,13,31.9c8.4,8.6,19.7,13.3,31.7,13.4H50
		c24.7,0,44.8-20.1,45-44.7C95.1,25.5,75.1,5.2,50,5z M72,69.1H28c-1.6,0-2.9-1.3-2.9-2.9s1.3-2.9,2.9-2.9h44c1.6,0,2.9,1.3,2.9,2.9
		C74.9,67.8,73.6,69.1,72,69.1z M72,52.9H28c-1.6,0-2.9-1.3-2.9-2.9c0-1.6,1.3-2.9,2.9-2.9h44c1.6,0,2.9,1.3,2.9,2.9
		C74.9,51.6,73.6,52.9,72,52.9z M72,36.6H28c-1.6,0-2.9-1.3-2.9-2.9c0-1.6,1.3-2.9,2.9-2.9h44c1.6,0,2.9,1.3,2.9,2.9
		C74.9,35.3,73.6,36.6,72,36.6z"/>
</g>
</svg>
