<?xml version="1.0" encoding="utf-8"?>
<!-- Generator: Adobe Illustrator 25.0.0, SVG Export Plug-In . SVG Version: 6.00 Build 0)  -->
<svg version="1.1" xmlns="http://www.w3.org/2000/svg" xmlns:xlink="http://www.w3.org/1999/xlink" x="0px" y="0px"
	 viewBox="0 0 100 99.9" style="enable-background:new 0 0 100 99.9;" xml:space="preserve">
<style type="text/css">
	.st0{fill:#FFFFFF;}
</style>
<g id="Camada_2">
</g>
<g id="Camada_1">
	<path class="st0" d="M50,2.5C23.8,2.5,2.5,23.8,2.5,50S23.8,97.5,50,97.5S97.5,76.2,97.5,50S76.2,2.5,50,2.5z M50,29.7
		c8.2,0,14.9,6.7,14.9,14.9S58.2,59.5,50,59.5s-14.9-6.7-14.9-14.9S41.8,29.7,50,29.7z M24,78.8v-2.2c0-6.3,5.1-11.5,11.5-11.5h29
		c6.3,0,11.5,5.1,11.5,11.5v2.2c-6.9,6.2-16,10-26,10S30.9,85,24,78.8z"/>
</g>
</svg>
